<?xml version="1.0" encoding="utf-8"?>
<!-- Generator: Adobe Illustrator 26.0.0, SVG Export Plug-In . SVG Version: 6.00 Build 0)  -->
<svg version="1.1" id="Capa_1" xmlns="http://www.w3.org/2000/svg" xmlns:xlink="http://www.w3.org/1999/xlink" x="0px" y="0px"
	 viewBox="0 0 595.28 841.89" style="enable-background:new 0 0 595.28 841.89;" xml:space="preserve">
<style type="text/css">
	.st0{fill:none;}
	.st1{fill:#1D1D1B;}
	.st2{fill:#FFFFFF;}
</style>
<path class="st0" d="M195.54,382.41"/>
<path class="st1" d="M196.21,378.14c0.9,56.94,13.12,111.62,39.55,164.19c6.18,8.04,10.42,8.76,11.73-1.56
	c-27.7-55.1-39.43-109.07-43.03-164.28l41.6-9.27c-11.57,23.23,16.97,148.91,17.99,150.11c3.85,4.91,10.43,8.21,12.59-1.41
	c-9.14-16.17-29.01-144.83-16.64-155.85c27.59-12.4,57.75-15.39,85.73-13.12l9.65,143.94c4.72,8.35,8.14,7.38,13.38,0.55
	l-11.32-145.46l30.79,15.32c-7.19,46.58-10.05,98.87-10.42,154.44c3.58,7.5,10.58,14.6,20.08,17.64c30.42-3,48.68-10.14,72.23-32.07
	c8.65-4.65,1.62-13.56-7.92-8.02c-1.59,0.92-42.67,23.79-42.67,23.79c-33.48,6.79-26.71-37.57-26.71-37.57c0-19.86,0-19.86,0-19.86
	c3.88-73.31,17.92-140.18,43.2-199.94c0.12-13.24-4.55-15.44-14.11-6.38c-14.06,29.5-23.95,60.78-30.51,93.48
	c0.38-0.66-36.42-11.7-37.35-13.3c-5.86-21.28-18.1-47.32-30.35-76.53c-7.4-14.5-16.59-14.4-27.9,0.65
	c-19.07,27.03-35.54,58.52-44.33,90.87c-15.17,7.86-29.98,10.35-44.69,11.85c0,0,7.1-79.21,7.15-81.27
	c0.67-24.57-12.43-19.95-13.04-0.94l-4.43,85.65c-51.57-0.33-78.75-11.67-74.06-55.09c-3.51-8.73-8.9-9.58-13.3-1.17
	C102.5,359.04,134.14,385.38,196.21,378.14z"/>
<path class="st2" d="M307.48,265.24c7.76-0.31,41.98,59.96,34.25,64.07c-25.2,0.74-50.57,5.98-76.08,14.77
	C268.49,315.2,286.64,287.77,307.48,265.24z"/>
<path class="st1" d="M484.98,375.89c40.29,16.61,48.23,41.92,32.99,73.66c-40.09,27.58-64.16,31.84-86.44-9.52
	c-6.54-2.98-10.21-1.65-10.3,5.05c5.48,37.45,91.53,67.44,117.69-9.95c5.44-28.08-10.85-49.7-37.7-68.96
	c-22.25-8-50.24-4.77-71.48,10.95c-3.09-23.8,0.68-51.13,20.05-66.88c17.35-17.89,35.05-20.42,47.43-1.37
	c4.23,8.82,7.31,18.49,7.82,28.65c4.68,6.29,6.98,4.34,10.07,0.49c-12.4-55.62-37.96-60.82-61.6-45.76
	c-9.36,5.96-18.58,15.06-25.42,26.21c-21.25,34.61-14.59,85.26,2.54,73.86C447.33,383.93,464.62,375.37,484.98,375.89z"/>
</svg>
